<?xml version="1.0" encoding="UTF-8" standalone="no"?>
<!-- Created with Inkscape (http://www.inkscape.org/) -->

<svg
   xmlns:dc="http://purl.org/dc/elements/1.1/"
   xmlns:cc="http://creativecommons.org/ns#"
   xmlns:rdf="http://www.w3.org/1999/02/22-rdf-syntax-ns#"
   xmlns:svg="http://www.w3.org/2000/svg"
   xmlns="http://www.w3.org/2000/svg"
   xmlns:sodipodi="http://sodipodi.sourceforge.net/DTD/sodipodi-0.dtd"
   xmlns:inkscape="http://www.inkscape.org/namespaces/inkscape"
   width="113.49668mm"
   height="97.958054mm"
   viewBox="0 0 402.15355 347.09542"
   id="svg2"
   version="1.1"
   inkscape:version="0.91 r13725"
   sodipodi:docname="multiple_datasources.svg">
  <defs
     id="defs4">
    <marker
       inkscape:stockid="Arrow2Send"
       orient="auto"
       refY="0"
       refX="0"
       id="marker5001"
       style="overflow:visible"
       inkscape:isstock="true">
      <path
         id="path5003"
         style="fill:#000000;fill-opacity:1;fill-rule:evenodd;stroke:#000000;stroke-width:0.625;stroke-linejoin:round;stroke-opacity:1"
         d="M 8.7185878,4.0337352 -2.2072895,0.01601326 8.7185884,-4.0017078 c -1.7454984,2.3720609 -1.7354408,5.6174519 -6e-7,8.035443 z"
         transform="matrix(-0.3,0,0,-0.3,0.69,0)"
         inkscape:connector-curvature="0" />
    </marker>
    <marker
       inkscape:stockid="Arrow2Send"
       orient="auto"
       refY="0"
       refX="0"
       id="Arrow2Send"
       style="overflow:visible"
       inkscape:isstock="true">
      <path
         id="path4549"
         style="fill:#000000;fill-opacity:1;fill-rule:evenodd;stroke:#000000;stroke-width:0.625;stroke-linejoin:round;stroke-opacity:1"
         d="M 8.7185878,4.0337352 -2.2072895,0.01601326 8.7185884,-4.0017078 c -1.7454984,2.3720609 -1.7354408,5.6174519 -6e-7,8.035443 z"
         transform="matrix(-0.3,0,0,-0.3,0.69,0)"
         inkscape:connector-curvature="0" />
    </marker>
    <marker
       inkscape:stockid="Arrow1Send"
       orient="auto"
       refY="0"
       refX="0"
       id="Arrow1Send"
       style="overflow:visible"
       inkscape:isstock="true">
      <path
         id="path4531"
         d="M 0,0 5,-5 -12.5,0 5,5 0,0 Z"
         style="fill:#000000;fill-opacity:1;fill-rule:evenodd;stroke:#000000;stroke-width:1pt;stroke-opacity:1"
         transform="matrix(-0.2,0,0,-0.2,-1.2,0)"
         inkscape:connector-curvature="0" />
    </marker>
    <marker
       inkscape:stockid="Arrow2Send"
       orient="auto"
       refY="0"
       refX="0"
       id="marker5001-3"
       style="overflow:visible"
       inkscape:isstock="true">
      <path
         inkscape:connector-curvature="0"
         id="path5003-7"
         style="fill:#000000;fill-opacity:1;fill-rule:evenodd;stroke:#000000;stroke-width:0.625;stroke-linejoin:round;stroke-opacity:1"
         d="M 8.7185878,4.0337352 -2.2072895,0.01601326 8.7185884,-4.0017078 c -1.7454984,2.3720609 -1.7354408,5.6174519 -6e-7,8.035443 z"
         transform="matrix(-0.3,0,0,-0.3,0.69,0)" />
    </marker>
    <marker
       inkscape:stockid="Arrow2Send"
       orient="auto"
       refY="0"
       refX="0"
       id="marker5001-9"
       style="overflow:visible"
       inkscape:isstock="true">
      <path
         inkscape:connector-curvature="0"
         id="path5003-2"
         style="fill:#000000;fill-opacity:1;fill-rule:evenodd;stroke:#000000;stroke-width:0.625;stroke-linejoin:round;stroke-opacity:1"
         d="M 8.7185878,4.0337352 -2.2072895,0.01601326 8.7185884,-4.0017078 c -1.7454984,2.3720609 -1.7354408,5.6174519 -6e-7,8.035443 z"
         transform="matrix(-0.3,0,0,-0.3,0.69,0)" />
    </marker>
    <marker
       inkscape:stockid="Arrow2Send"
       orient="auto"
       refY="0"
       refX="0"
       id="marker5001-9-3"
       style="overflow:visible"
       inkscape:isstock="true">
      <path
         inkscape:connector-curvature="0"
         id="path5003-2-3"
         style="fill:#000000;fill-opacity:1;fill-rule:evenodd;stroke:#000000;stroke-width:0.625;stroke-linejoin:round;stroke-opacity:1"
         d="M 8.7185878,4.0337352 -2.2072895,0.01601326 8.7185884,-4.0017078 c -1.7454984,2.3720609 -1.7354408,5.6174519 -6e-7,8.035443 z"
         transform="matrix(-0.3,0,0,-0.3,0.69,0)" />
    </marker>
    <marker
       inkscape:stockid="Arrow2Send"
       orient="auto"
       refY="0"
       refX="0"
       id="marker5001-9-4"
       style="overflow:visible"
       inkscape:isstock="true">
      <path
         inkscape:connector-curvature="0"
         id="path5003-2-7"
         style="fill:#000000;fill-opacity:1;fill-rule:evenodd;stroke:#000000;stroke-width:0.625;stroke-linejoin:round;stroke-opacity:1"
         d="M 8.7185878,4.0337352 -2.2072895,0.01601326 8.7185884,-4.0017078 c -1.7454984,2.3720609 -1.7354408,5.6174519 -6e-7,8.035443 z"
         transform="matrix(-0.3,0,0,-0.3,0.69,0)" />
    </marker>
    <marker
       inkscape:stockid="Arrow2Send"
       orient="auto"
       refY="0"
       refX="0"
       id="marker5001-9-5"
       style="overflow:visible"
       inkscape:isstock="true">
      <path
         inkscape:connector-curvature="0"
         id="path5003-2-4"
         style="fill:#000000;fill-opacity:1;fill-rule:evenodd;stroke:#000000;stroke-width:0.625;stroke-linejoin:round;stroke-opacity:1"
         d="M 8.7185878,4.0337352 -2.2072895,0.01601326 8.7185884,-4.0017078 c -1.7454984,2.3720609 -1.7354408,5.6174519 -6e-7,8.035443 z"
         transform="matrix(-0.3,0,0,-0.3,0.69,0)" />
    </marker>
    <marker
       inkscape:stockid="Arrow2Send"
       orient="auto"
       refY="0"
       refX="0"
       id="marker5001-9-4-8"
       style="overflow:visible"
       inkscape:isstock="true">
      <path
         inkscape:connector-curvature="0"
         id="path5003-2-7-1"
         style="fill:#000000;fill-opacity:1;fill-rule:evenodd;stroke:#000000;stroke-width:0.625;stroke-linejoin:round;stroke-opacity:1"
         d="M 8.7185878,4.0337352 -2.2072895,0.01601326 8.7185884,-4.0017078 c -1.7454984,2.3720609 -1.7354408,5.6174519 -6e-7,8.035443 z"
         transform="matrix(-0.3,0,0,-0.3,0.69,0)" />
    </marker>
  </defs>
  <sodipodi:namedview
     id="base"
     pagecolor="#ffffff"
     bordercolor="#666666"
     borderopacity="1.0"
     inkscape:pageopacity="0.0"
     inkscape:pageshadow="2"
     inkscape:zoom="3.451805"
     inkscape:cx="45.809971"
     inkscape:cy="296.85098"
     inkscape:document-units="px"
     inkscape:current-layer="layer1"
     showgrid="false"
     inkscape:window-width="1366"
     inkscape:window-height="712"
     inkscape:window-x="0"
     inkscape:window-y="0"
     inkscape:window-maximized="1"
     fit-margin-top="0"
     fit-margin-left="0"
     fit-margin-right="0"
     fit-margin-bottom="0" />
  <metadata
     id="metadata7">
    <rdf:RDF>
      <cc:Work
         rdf:about="">
        <dc:format>image/svg+xml</dc:format>
        <dc:type
           rdf:resource="http://purl.org/dc/dcmitype/StillImage" />
        <dc:title></dc:title>
      </cc:Work>
    </rdf:RDF>
  </metadata>
  <g
     inkscape:label="Layer 1"
     inkscape:groupmode="layer"
     id="layer1"
     transform="translate(-174.79938,-352.61901)"
     style="display:inline">
    <rect
       style="opacity:1;fill:#ffffff;fill-opacity:1;stroke:none;stroke-width:0.18564293;stroke-linecap:butt;stroke-linejoin:miter;stroke-miterlimit:4;stroke-dasharray:none;stroke-dashoffset:0;stroke-opacity:1"
       id="rect4874"
       width="86.056305"
       height="114.44724"
       x="175.66132"
       y="354.38074"
       ry="0" />
    <rect
       id="rect4"
       width="207.74962"
       height="207.74962"
       x="259.25491"
       y="475.51416"
       style="fill:none" />
    <g
       id="g4856">
      <path
         inkscape:connector-curvature="0"
         id="path3453"
         d="m 175.05685,353.97858 68.44414,0"
         style="fill:none;fill-rule:evenodd;stroke:#000000;stroke-width:2.71914434;stroke-linecap:butt;stroke-linejoin:miter;stroke-miterlimit:4;stroke-dasharray:none;stroke-opacity:1" />
      <path
         inkscape:connector-curvature="0"
         id="path3453-3"
         d="m 176.57783,352.64773 0,117.11552"
         style="display:inline;fill:none;fill-rule:evenodd;stroke:#000000;stroke-width:3.55689764;stroke-linecap:butt;stroke-linejoin:miter;stroke-miterlimit:4;stroke-dasharray:none;stroke-opacity:1" />
      <path
         inkscape:connector-curvature="0"
         id="path3453-6"
         d="m 174.86673,468.85921 87.83664,0"
         style="display:inline;fill:none;fill-rule:evenodd;stroke:#000000;stroke-width:3.08036375;stroke-linecap:butt;stroke-linejoin:miter;stroke-miterlimit:4;stroke-dasharray:none;stroke-opacity:1" />
      <path
         inkscape:connector-curvature="0"
         id="path3453-3-7"
         d="m 261.05139,372.6106 0,96.96252"
         style="display:inline;fill:none;fill-rule:evenodd;stroke:#000000;stroke-width:3.23642921;stroke-linecap:butt;stroke-linejoin:miter;stroke-miterlimit:4;stroke-dasharray:none;stroke-opacity:1" />
      <path
         inkscape:connector-curvature="0"
         id="path3453-5"
         d="m 242.43246,354.00708 19.43438,19.8089"
         style="display:inline;fill:none;fill-rule:evenodd;stroke:#000000;stroke-width:3.01516962;stroke-linecap:butt;stroke-linejoin:miter;stroke-miterlimit:4;stroke-dasharray:none;stroke-opacity:1" />
      <path
         inkscape:connector-curvature="0"
         id="path3453-3-7-3"
         d="m 241.04117,353.40821 0,21.67399"
         style="display:inline;fill:none;fill-rule:evenodd;stroke:#000000;stroke-width:2.96827102;stroke-linecap:butt;stroke-linejoin:miter;stroke-miterlimit:4;stroke-dasharray:none;stroke-opacity:1" />
      <path
         inkscape:connector-curvature="0"
         id="path3453-3-7-3-5"
         d="m 261.18239,373.75133 -21.67398,0"
         style="display:inline;fill:none;fill-rule:evenodd;stroke:#000000;stroke-width:2.96827102;stroke-linecap:butt;stroke-linejoin:miter;stroke-miterlimit:4;stroke-dasharray:none;stroke-opacity:1" />
      <path
         inkscape:connector-curvature="0"
         id="path3453-62"
         d="m 190.92516,398.46727 57.79726,0"
         style="display:inline;fill:none;fill-rule:evenodd;stroke:#000000;stroke-width:2.49872136;stroke-linecap:butt;stroke-linejoin:miter;stroke-miterlimit:4;stroke-dasharray:none;stroke-opacity:1" />
      <path
         inkscape:connector-curvature="0"
         id="path3453-62-9"
         d="m 190.92516,413.47546 57.79726,0"
         style="display:inline;fill:none;fill-rule:evenodd;stroke:#000000;stroke-width:2.49872136;stroke-linecap:butt;stroke-linejoin:miter;stroke-miterlimit:4;stroke-dasharray:none;stroke-opacity:1" />
      <path
         inkscape:connector-curvature="0"
         id="path3453-62-1"
         d="m 190.92516,430.02762 57.79726,0"
         style="display:inline;fill:none;fill-rule:evenodd;stroke:#000000;stroke-width:2.49872136;stroke-linecap:butt;stroke-linejoin:miter;stroke-miterlimit:4;stroke-dasharray:none;stroke-opacity:1" />
      <path
         style="display:inline;fill:#000000;fill-opacity:1;stroke:#000000;stroke-width:0.05397166;stroke-miterlimit:4;stroke-dasharray:none;stroke-opacity:1;shape-rendering:crispEdges"
         id="path3"
         d="m 237.96411,411.16034 c 1.178,0.1489 2.35999,-0.16411 3.29485,-0.88918 1.83956,-1.42672 2.24473,-3.98676 1.01896,-5.90973 l 2.11097,-1.63722 -0.11843,0.93705 c -0.0271,0.21418 0.13664,0.42528 0.35083,0.45235 0.21418,0.0271 0.42527,-0.13665 0.45235,-0.35083 l 0.24364,-1.92765 c 0.007,-0.0535 0.0135,-0.10709 -0.01,-0.13725 0,0 0,0 0,0 -0.04,-0.11385 -0.0834,-0.20094 -0.18711,-0.24125 0,0 0,0 0,0 -0.0502,-0.0335 -0.10371,-0.0403 -0.13047,-0.0437 l -1.90088,-0.24026 c -0.21418,-0.0271 -0.42527,0.13665 -0.45235,0.35083 -0.0271,0.21419 0.13665,0.42528 0.35084,0.45235 l 0.93704,0.11844 -2.11097,1.63723 c -0.71859,-0.77085 -1.66519,-1.2441 -2.70933,-1.37607 -1.17801,-0.14889 -2.35998,0.16412 -3.29485,0.88918 -1.93003,1.49688 -2.28534,4.30804 -0.78845,6.23807 0.69828,0.93147 1.76522,1.52874 2.94322,1.67763 z m -1.69037,-7.28579 c 0.75392,-0.58473 1.71495,-0.87126 2.67877,-0.74944 0.96383,0.12182 1.82673,0.61169 2.40806,1.39238 1.23962,1.59831 0.95199,3.874 -0.64632,5.11362 -0.75392,0.58472 -1.71496,0.87126 -2.67878,0.74943 -0.96382,-0.12182 -1.82672,-0.61169 -2.40806,-1.39238 -1.21284,-1.59492 -0.92183,-3.89739 0.64633,-5.11361 z"
         inkscape:connector-curvature="0" />
      <text
         sodipodi:linespacing="125%"
         id="text4435"
         y="393.30292"
         x="191.84589"
         style="font-style:normal;font-weight:normal;font-size:11.09072304px;line-height:125%;font-family:Sans;letter-spacing:0px;word-spacing:0px;fill:#000000;fill-opacity:1;stroke:none;stroke-width:1px;stroke-linecap:butt;stroke-linejoin:miter;stroke-opacity:1"
         xml:space="preserve"><tspan
           style="font-style:normal;font-variant:normal;font-weight:normal;font-stretch:normal;font-family:Montserrat;-inkscape-font-specification:Montserrat"
           y="393.30292"
           x="191.84589"
           id="tspan4437"
           sodipodi:role="line">Age</tspan></text>
      <text
         sodipodi:linespacing="125%"
         id="text4435-2"
         y="426.73303"
         x="207.45303"
         style="font-style:normal;font-weight:normal;font-size:11.09072304px;line-height:125%;font-family:Sans;letter-spacing:0px;word-spacing:0px;display:inline;fill:#000000;fill-opacity:1;stroke:none;stroke-width:1px;stroke-linecap:butt;stroke-linejoin:miter;stroke-opacity:1"
         xml:space="preserve"><tspan
           style="font-style:normal;font-variant:normal;font-weight:normal;font-stretch:normal;font-family:Montserrat;-inkscape-font-specification:Montserrat"
           y="426.73303"
           x="207.45303"
           id="tspan4437-2"
           sodipodi:role="line">X</tspan></text>
      <path
         inkscape:connector-curvature="0"
         id="path4960"
         d="m 229.43192,453.60282 c 1.01398,-0.25349 2.01706,-0.55551 3.04196,-0.76049 0.24857,-0.0497 0.50699,0 0.76049,0 0.76049,0 1.52097,0 2.28147,0 2.02797,0 4.05595,0 6.08392,0 0.18072,0 2.87151,0.0852 3.04196,0 0.6961,-0.34804 1.33573,-1.72571 1.52098,-2.28147 0.0802,-0.24049 -0.2535,-0.76049 0,-0.76049 0.2535,0 0,0.50699 0,0.76049 0,0.2535 0,0.50699 0,0.76049 0,2.02798 0,4.05595 0,6.08393"
         style="fill:none;fill-rule:evenodd;stroke:#000000;stroke-width:0.59365416px;stroke-linecap:butt;stroke-linejoin:miter;stroke-opacity:1" />
    </g>
    <path
       inkscape:connector-curvature="0"
       d="m 576.95226,421.09092 c -2.98292,1.32591 -6.19312,2.2203 -9.56145,2.62055 3.43914,-2.05888 6.07619,-5.32015 7.31974,-9.21064 -3.2168,1.90901 -6.77786,3.29422 -10.57114,4.04201 -3.03563,-3.23489 -7.36254,-5.25756 -12.1507,-5.25756 -9.19251,0 -16.64569,7.45315 -16.64569,16.64731 0,1.30286 0.14668,2.57281 0.43154,3.79328 -13.83567,-0.69509 -26.10333,-7.32138 -34.31414,-17.39345 -1.433,2.45748 -2.25326,5.31685 -2.25326,8.37059 0,5.77476 2.93844,10.87094 7.40539,13.85549 -2.72763,-0.0873 -5.29544,-0.83676 -7.54046,-2.08363 -10e-4,0.0691 -10e-4,0.14003 -10e-4,0.2108 0,8.06424 5.73854,14.791 13.35476,16.32282 -1.39675,0.37883 -2.86761,0.5831 -4.38623,0.5831 -1.07393,0 -2.11654,-0.10371 -3.13281,-0.29978 2.11984,6.61313 8.26681,11.42762 15.55032,11.56107 -5.6973,4.46527 -12.87378,7.12703 -20.67449,7.12703 -1.34235,0 -2.6683,-0.0791 -3.97116,-0.234 7.36916,4.72553 16.11858,7.4795 25.51863,7.4795 30.62139,0 47.36421,-25.36542 47.36421,-47.3642 0,-0.72142 -0.0146,-1.44121 -0.0461,-2.15605 3.25136,-2.34219 6.07449,-5.27571 8.30471,-8.61439 z"
       id="path3-53" />
    <g
       transform="matrix(0.21340158,0,0,0.21340158,333.39703,347.69948)"
       id="3e91140ac1bfb9903b91c1b0ca0929ce">
      <g
         id="g5" />
      <path
         style="display:inline"
         inkscape:connector-curvature="0"
         display="inline"
         d="m 482.007,132.576 c -3.451,13.652 -10.421,25.263 -24.859,30.405 -7.078,2.52 -11.652,-0.073 -18.871,-2.154 7.086,0.674 11.161,1.763 17.507,-1.378 11.847,-5.858 20.576,-15.43 26.223,-26.873 z m 28.847,89.743 c -1.684,16.547 -6.101,32.622 -13.968,46.247 -7.045,12.218 -16.863,22.489 -29.941,29.492 -8.887,4.725 -19.213,7.461 -29.888,8.579 -11.082,1.152 -22.522,0.536 -33.197,-1.276 -0.499,1.654 -1.015,3.335 -1.506,4.978 -0.624,2.066 -1.256,4.146 -1.88,6.2 -2.179,7.161 -7.385,13.615 -13.872,18.397 -6.695,4.94 -14.858,8.167 -22.469,8.509 -7.27,0.353 -12.888,-1.36 -17.869,-4.301 -4.824,-2.836 -8.949,-6.782 -13.449,-11.128 l -5.896,-5.672 c -1.322,-1.289 -2.645,-2.574 -3.983,-3.851 -0.142,0.927 -0.274,1.813 -0.416,2.623 2.079,4.205 3.551,8.147 5.048,12.189 l 0,0.012 c 0.944,2.524 1.913,5.119 3.082,7.931 1.742,4.158 3.057,7.627 3.972,11.224 0.914,3.631 1.418,7.323 1.53,11.848 0.107,3.855 0.212,7.702 0.319,11.549 0.096,3.63 0.188,7.261 0.304,10.891 1.605,2.911 2.554,4.907 3.027,7.111 0.532,2.35 0.479,4.641 0.208,8.375 -0.59,8.393 -3.364,13.07 -8.025,15.724 -4.375,2.479 -10.168,2.849 -17.333,2.815 -1.09,-0.017 -2.856,-0.017 -4.999,-0.017 -6.952,0 -17.706,0.017 -20.996,-0.216 -4.42,-0.32 -8.097,-0.657 -11.182,-1.397 -2.379,-0.565 -4.334,-1.39 -5.968,-2.587 -2.375,1.917 -4.462,3.651 -6.559,5.377 -6.173,5.086 -12.439,10.268 -14.963,11.947 -0.967,1.489 -1.842,2.99 -2.645,4.384 -2.591,4.541 -4.508,7.9 -10.617,11.215 -11.998,6.479 -21.283,5.914 -29.428,0.915 -7.76,-4.762 -14.17,-13.511 -20.872,-23.849 -3.188,-4.907 -8.278,-12.991 -10.756,-20.918 -2.74,-8.774 -2.36,-17.308 6.381,-21.799 0.416,-0.216 0.838,-0.433 1.233,-0.641 0.911,-0.474 1.77,-0.906 2.628,-1.348 -3.313,0.175 -6.643,0.309 -9.956,0.267 -6.504,-0.042 -13.039,-0.49 -19.703,-1.348 0.108,0.795 0.2,1.431 0.251,1.843 0.51,4.42 0.863,7.314 0.443,10.213 -0.422,2.99 -1.609,5.651 -4.136,9.419 -0.168,0.25 -0.734,1.069 -1.218,1.755 -2.343,3.452 -3.728,5.506 -6.951,12.638 0.318,3.515 0.422,6.342 0.189,9.157 -0.256,3.032 -0.894,6.117 -1.973,10.151 -2.751,10.172 -12.979,12.517 -24.311,11.806 -10.398,-0.648 -21.782,-3.921 -28.359,-5.709 -1.428,-0.379 -2.586,-0.679 -3.711,-0.974 -5.55,-1.447 -11.53,-3.011 -16.563,-5.298 -10.078,-4.6 -16.537,-11.818 -10.247,-25.638 1.013,-2.191 1.896,-4.42 2.699,-6.666 0.308,-0.798 0.51,-1.563 0.771,-2.361 -5.131,0.798 -10.582,-0.175 -15.89,-2.192 -9.286,-3.53 -18.16,-10.275 -23.589,-15.706 -4.341,-4.351 -7.718,-9.032 -10.245,-13.84 -2.734,-5.207 -4.483,-10.604 -5.373,-15.919 -1.466,-8.699 -0.443,-9.689 4.699,-14.626 0.767,-0.752 1.626,-1.571 1.836,-1.775 2.541,-2.512 5.065,-5.031 7.6,-7.531 2.705,-2.682 5.441,-5.385 8.136,-8.08 1.239,-3.352 2.472,-6.695 3.715,-10.076 0.799,-2.158 1.591,-4.333 2.381,-6.482 -0.38,-2.005 -0.724,-4.021 -1.013,-6.084 -0.334,-2.408 -0.597,-4.62 -0.771,-6.616 -0.782,-9.194 -1.044,-17.101 -0.771,-24.261 0.206,-5.461 0.715,-10.484 1.553,-15.291 -4.246,0.946 -8.571,0.873 -12.49,-0.37 -4.843,-1.564 -9.07,-4.907 -11.688,-10.403 -0.981,-2.017 -1.753,-4.057 -2.483,-6.36 -0.642,-2.032 -1.235,-4.3 -1.871,-6.87 C 3.397,225.046 1.429,221.291 0.776,217.446 0,213.033 0.894,208.632 2.87,204.415 c 1.892,-4.053 4.797,-7.908 8.159,-11.405 9.055,-9.405 21.926,-16.474 27.916,-17.514 l 4.493,-0.786 -1.495,4.304 c -0.777,2.179 -1.686,4.462 -2.565,6.709 -0.248,0.653 -0.499,1.312 -0.771,2.021 2.755,2.179 4.406,5.202 5.177,8.643 1.204,5.321 0.426,11.451 -0.601,16.038 l -1.225,5.491 -3.48,-4.402 c -0.842,-1.038 -1.543,-2.119 -2.217,-3.167 -0.622,-0.957 -1.212,-1.857 -1.815,-2.597 -0.479,7.143 -1.348,14.306 -6.438,19.189 0.144,0.614 0.212,0.942 0.314,1.013 0.081,0.042 0.946,-0.43 3.034,-1.243 3.584,-1.368 6.772,-3.651 9.771,-6.335 3.083,-2.776 5.903,-5.945 8.756,-9.081 3.225,-6.263 6.916,-12.187 11.226,-17.821 4.381,-5.749 9.395,-11.184 15.183,-16.312 14.166,-12.546 27.947,-20.901 43.59,-26.954 15.312,-5.917 32.382,-9.646 53.352,-13.008 2.639,-2.736 5.317,-5.446 8.063,-8.126 2.946,-2.828 5.99,-5.656 9.178,-8.483 4.479,-3.938 8.222,-6.346 11.945,-7.836 3.362,-1.368 6.679,-1.903 10.407,-2.175 6.402,-8.535 12.239,-15.858 19.106,-22.202 7.19,-6.649 15.447,-12.183 26.564,-16.857 23.025,-9.712 42.546,-14.771 61.01,-13.611 18.597,1.163 35.996,8.608 54.643,23.993 3.519,2.907 7.103,6.047 10.675,9.184 7.814,6.87 15.482,13.597 24.49,19.231 3.393,2.102 6.263,3.928 9.099,6.078 2.803,2.14 5.39,4.531 8.084,7.712 3.256,3.898 6.229,7.791 8.837,11.96 2.191,3.483 4.104,7.18 5.793,11.236 3.817,-1.539 7.859,-3.235 11.095,-5.97 2.795,-2.397 5.123,-5.801 7.444,-9.194 2.079,-3.055 4.166,-6.082 6.645,-8.577 0.808,-0.838 1.73,-1.522 2.729,-2.025 3.801,-2.007 8.612,-1.676 13.166,-0.104 4.3,1.472 8.45,4.088 11.27,6.87 1.297,1.267 2.337,2.624 3.019,3.94 5.664,10.829 9.739,25.885 12.201,41.381 2.744,17.403 3.492,35.435 2.157,48.696 z m -79.306,-71.277 c -0.823,0.021 -1.63,0.042 -2.412,0.071 1.173,1.152 2.092,2.52 2.766,4.032 0.332,-0.318 0.711,-0.626 1.118,-0.904 -0.483,-1.08 -0.973,-2.151 -1.472,-3.199 z M 32.417,199.417 c 2.094,-0.235 3.396,0.865 5.016,2.478 -0.293,-3.865 -1.025,-6.734 -3.739,-8.329 -0.195,0.628 -0.349,1.26 -0.53,1.898 -0.35,1.243 -0.566,2.565 -0.747,3.953 z m 8.321,42.175 c 0.196,-0.695 0.401,-1.379 0.626,-2.078 1.316,-4.154 2.726,-8.186 4.238,-12.095 -3.163,2.859 -6.72,5.285 -11.035,7.013 -11.158,4.464 -10.931,0.607 -15.734,-9.08 10.211,-8.155 5.485,-18.171 8.735,-29.428 0.757,-2.587 1.853,-5.115 3.404,-8.448 -10.694,6.438 -30.347,24.419 -17.214,38.046 1.424,5.142 2.524,9.143 4.479,13.209 4.02,8.398 14.521,6.244 22.501,2.861 z M 70.303,377.823 C 58.887,360.545 48.574,339.976 42.522,319.059 c -1.117,2.998 -2.237,5.972 -3.348,8.966 -5.117,5.164 -10.232,10.346 -15.349,15.531 -3.791,3.847 -4.531,3.98 -3.764,9.415 1.034,7.461 5.436,15.391 12.012,22.103 6.015,6.143 26.779,22.165 34.944,11.245 1.738,-2.329 2.556,-5.207 3.286,-8.176 0,-0.116 0,-0.204 0,-0.32 z m 250.894,-32.707 c -1.805,-4.291 -2.803,-8.316 -4.059,-12.38 -2.716,9.715 -6.38,18.859 -9.706,29.372 -3.152,9.947 -19.346,38.791 -28.86,45.802 1.854,1.381 5.256,1.913 11.319,2.438 4.292,0.365 21.188,0.465 25.446,0.527 9.348,0.171 12.896,-0.54 13.844,-11.178 0.457,-5.219 0.041,-6.188 -2.563,-10.758 -0.224,-8.143 -0.448,-16.302 -0.673,-24.444 -0.236,-7.714 -1.72,-12.176 -4.748,-19.379 z m 167.98,-204.903 c -2.175,-5.267 -10.871,-13.16 -16.394,-7.795 -5.572,5.429 -9.764,13.07 -15.835,17.873 -8.275,6.504 -22.506,4.267 -19.928,18.09 1.884,10.068 2.42,21.337 0.266,30.717 -2.054,9.009 -4.191,21.812 -8.891,27.843 1.389,-5.104 3.726,-18.449 4.379,-27.452 0.354,-4.926 -0.199,-10.871 -1.119,-16.854 -1.039,0.021 -2.074,0.045 -3.135,0.077 -3.793,0.077 -9.973,5.516 -11.636,8.91 -4.641,9.452 -4.957,18.235 -10.155,27.232 4.184,-10.057 1.83,-19.127 5.651,-29.914 1.344,-3.805 4.758,-7.086 8.704,-9.083 -2.196,-0.328 -4.392,0.632 -7.636,1.389 -13.881,3.302 -13.257,14.212 -21.794,24.631 8.229,-15.098 4.029,-25.109 21.873,-29.182 5.872,-1.331 10.159,-1.865 14.019,1.22 0.083,0 0.167,0 0.241,-0.017 1.015,-0.077 2.021,-0.16 3.044,-0.231 -0.507,-2.771 -1.048,-5.501 -1.588,-8.074 -8.159,-1.069 -15.678,-0.842 -24.045,0.422 1.809,-0.786 3.568,-1.512 5.273,-2.129 2.661,-0.977 5.248,-1.749 7.821,-2.189 0.254,-0.509 0.403,-1.071 0.475,-1.676 0.266,-2.819 -1.821,-5.337 -4.637,-5.616 -2.828,-0.268 -5.231,1.811 -5.506,4.639 -0.1,1.11 0.291,2.437 0.915,3.537 -0.138,-0.248 -0.271,-0.493 -0.392,-0.755 l -0.012,-0.017 c -1.077,-2.077 -1.568,-4.473 -1.348,-6.957 0.195,-1.875 0.781,-3.604 1.676,-5.136 -0.274,0.066 -0.549,0.154 -0.823,0.251 -1.983,0.796 -6.213,0.541 -8.126,-0.114 3.751,-0.622 9.34,-2.616 12.95,-4.375 0.1,-0.042 0.195,-0.083 0.274,-0.133 2.254,-1.389 4.956,-2.073 7.776,-1.811 1.431,0.143 2.777,0.513 4.009,1.1 1.68,0.495 3.56,1.163 5.821,1.976 -3.435,-7.178 -7.314,-13.667 -11.984,-20.177 -4.416,-6.145 -8.126,-8.267 -14.655,-12.124 -1.422,-0.844 -2.811,-1.687 -4.183,-2.572 -4.824,-0.884 -10.205,-1.753 -14.847,-0.869 3.826,-1.505 6.704,-2.112 10.056,-2.389 -9.24,-6.625 -17.212,-14.06 -26.332,-21.73 -35.193,-29.592 -63.671,-27.49 -108.487,-8.032 -18.187,7.918 -24.697,15.879 -35.886,30.204 0.098,0 0.216,-0.01 0.35,-0.01 11.379,-0.287 22.693,-0.678 34.391,-1.778 -12.099,2.817 -23.668,5.069 -35.547,6.868 -13.108,2 -17.133,1.667 -27.02,11.289 -18.219,17.724 -33.48,37.757 -50.156,55.732 -9.65,10.417 -14.449,20.857 -20.115,32.724 -5.62,11.806 -4.842,16.278 2.699,26.481 7.704,10.444 12.361,15.168 15.627,24.441 8.519,-13.149 18.782,-24.051 29.603,-37.121 -8.835,14.16 -16.892,27.54 -24.194,41.937 -4.549,8.958 -6.783,13.523 -6.637,23.43 8.539,9.839 13.894,15.087 21.822,17.266 8.54,2.346 16.588,1.955 24.307,-2.046 19.204,-9.938 37.458,-22.905 58.772,-24.539 11.003,-19.611 7.912,-44.272 3.963,-66.578 -3.271,-18.537 -2.441,-34.884 1.975,-53.477 1.106,18.058 2.551,34.826 6.133,52.53 5.219,25.935 6.317,48.324 -4.59,75.122 -23.556,0.565 -42.889,14.367 -63.781,25.051 -9.394,4.808 -18.181,5.29 -28.692,2.79 -10.716,-2.549 -18.932,-10.816 -29.958,-22.889 1.081,-9.128 2.272,-14.8 5.522,-21.503 -3.932,-11.844 -8.808,-17.291 -17.821,-29.405 -10.453,-14.043 -10.633,-20.127 -2.726,-36.119 5.699,-11.594 11.041,-22.29 20.055,-32.867 8.874,-10.479 17.035,-20.233 25.284,-29.453 -34.283,5.204 -56.167,13.471 -79.582,34.008 -17.36,15.241 -28.188,34.165 -35.913,56.018 -4.895,13.79 -6.267,27.683 -3.959,50.226 2.967,29.056 18.397,61.838 35.013,85.749 -2.027,14.888 -4.655,26.104 -8.81,36.745 -4.71,12.068 14.033,15.761 23.088,18.239 7.353,2.017 35.279,9.681 38.04,-0.216 1.645,-5.931 1.645,-10.072 1.233,-16.327 4.978,-9.926 6.49,-11.253 10.043,-17.124 3.801,-6.284 4.119,-8.792 4.15,-16.173 0.015,-9.519 -0.231,-26.519 0.17,-32.665 1.289,5.497 2.822,13.149 4.092,20.493 19.849,3.551 39.548,3.293 59.384,-0.757 0.252,-1.385 0.711,-2.895 1.225,-4.749 1.326,-4.642 3.99,-9.282 5.331,-13.932 -0.375,4.579 -0.724,9.145 -1.096,13.711 -0.37,4.712 -0.385,8.513 0.195,13.212 0.32,2.586 0.649,5.165 0.957,7.747 -1.435,-2.366 -3.67,-4.637 -4.976,-7.016 -8.835,5.813 -13.694,9.104 -22.369,13.682 -9.164,4.849 1.347,22.198 5.131,28.229 8.319,13.203 18.254,28.855 33.707,20.68 5.069,-2.674 8.036,-8.878 11.419,-13.345 4.535,-2.669 28.612,-22.967 32.438,-25.18 5.398,-3.098 24.848,-34.965 27.313,-42.912 5.439,-17.599 11.827,-30.993 13.632,-49.353 -12.384,-5.207 -18.405,-10.991 -27.28,-21.425 12.476,9.248 23.246,14.192 36.695,18.451 4.902,4.32 9.848,8.688 14.991,13.266 7.456,6.641 14.302,13.411 25.113,13.606 11.694,0.2 24.918,-8.741 28.32,-19.828 1.306,-4.262 2.623,-8.537 3.925,-12.804 -2.312,-0.558 -4.582,-1.181 -6.77,-1.851 -2.425,5.83 -2.233,8.089 -3.377,12.372 -1.971,7.327 -12.056,12.413 -22.622,9.863 -3.756,-0.906 -5.964,-1.43 -7.303,-2.395 1.057,2.886 3.127,5.344 6.97,6.046 4.259,0.79 7.402,1.132 13.59,-0.274 -7.651,3.968 -10.113,4.138 -15.536,2.928 -14.268,-3.169 -9.244,-20.352 -6.134,-30.86 1.954,-6.616 1.293,-13.636 -0.188,-20.265 5.406,3.418 9.689,6.429 15.84,8.509 28.814,9.706 63.006,19.599 92.008,3.397 22.747,-12.696 35.219,-40.854 38.021,-66.647 2.497,-22.994 -1.811,-58.863 -11.234,-81.663 z M 342.09,278.663 c -0.566,3.581 -1.335,8.001 -1.901,11.582 1.522,-4.042 3.331,-8.721 5.091,-12.58 1.867,-4.079 2.91,-4.449 6.849,-6.604 2.812,-1.53 7.901,-3.626 10.7,-5.14 -2.882,0.482 -8.051,1.534 -10.921,2.021 -7.698,1.302 -8.613,3.144 -9.818,10.721 z M 210.549,140.954 c -8.926,8.843 -17.601,39.161 -20.373,51.285 4.356,-10.089 15.299,-38.256 23.679,-45.428 2.314,-1.986 3.944,-3.204 5.668,-4.09 -6,10.08 -5.564,12.577 -3.456,26.062 1.788,-13.709 6.545,-19.017 14.315,-29.232 8.529,-2.156 16.53,-4.706 25.271,-8.12 -9.872,1.121 -19.713,2.133 -29.603,3.065 -8.281,0.781 -9.618,0.663 -15.501,6.458 z m 148.258,33.623 c -1.917,-4.027 -5.285,-6.911 -9.182,-8.332 3.547,-1.913 7.011,-3.886 9.73,-6.35 -7.951,3.683 -17.199,2.778 -24.003,7.394 -6.03,4.042 -14.317,16.909 -20.418,22.348 4.416,-1.713 8.674,-4.681 12.592,-7.795 0.029,2.314 0.549,4.678 1.589,6.91 1.089,2.274 2.669,4.146 4.508,5.626 -0.524,-0.524 -0.978,-1.121 -1.314,-1.815 -1.63,-3.41 -0.175,-7.512 3.235,-9.126 3.418,-1.646 7.539,-0.187 9.169,3.219 0.146,0.329 0.287,0.657 0.379,0.986 -3.269,2.439 -6.263,5.288 -8.767,8.587 -2.187,2.879 -4.017,6.129 -5.322,9.729 11.619,-13.779 28.474,-24.203 44.321,-28.64 -4.433,-0.052 -9.681,0.78 -15.021,2.518 -0.191,-1.763 -0.677,-3.547 -1.496,-5.259 z m -56.756,-12.419 c 2.674,-11.835 7.428,-23.242 25.816,-32.075 -24.369,6.103 -28.943,16.337 -25.816,32.075 z"
         id="path7" />
    </g>
    <g
       id="g4631"
       transform="translate(-173.71391,-471.97742)">
      <rect
         y="922.51984"
         x="405.07672"
         height="47.699959"
         width="46.171936"
         id="rect4300"
         style="opacity:1;fill:#ffffff;fill-opacity:1;stroke:#000000;stroke-width:3.38558912;stroke-linecap:butt;stroke-linejoin:miter;stroke-miterlimit:4;stroke-dasharray:none;stroke-dashoffset:0;stroke-opacity:1" />
      <rect
         ry="15.383213"
         y="961.88629"
         x="435.138"
         height="147.37918"
         width="155.54874"
         id="rect4229"
         style="opacity:1;fill:#ffffff;fill-opacity:1;stroke:none;stroke-width:0.93905979;stroke-linecap:butt;stroke-linejoin:round;stroke-miterlimit:4;stroke-dasharray:3.75623924, 0.93905981;stroke-dashoffset:0;stroke-opacity:1" />
      <path
         d="m 589.36145,1057.2073 -21.38385,-25.9881 c -0.79797,-0.9657 -2.2216,-1.1062 -3.19186,-0.3105 l -0.65742,0.5395 c -1.34425,-1.9201 -3.40037,-5.4429 -4.57462,-10.3553 -2.5707,-10.7543 -6.80078,-21.0053 -12.93056,-31.33799 -2.83364,-4.76961 -13.75796,-16.73441 -19.62925,-23.16114 -1.21057,-1.32617 -2.15358,-2.35989 -2.68634,-2.96061 -2.78607,-3.14192 -6.46069,-4.80361 -10.62281,-4.80361 -1.77724,0 -3.58628,0.3036 -5.3794,0.90224 -12.17566,4.06234 -26.30085,9.00424 -29.87576,10.3848 -5.08244,1.96316 -7.03428,5.73756 -7.77554,8.55988 -0.24246,0.92263 -0.38783,1.89063 -0.44201,2.87447 l -26.84944,-31.42863 c -2.27369,-2.76112 -5.23655,-4.28222 -8.34451,-4.28222 -2.35533,0 -4.67439,0.88411 -6.70331,2.55482 -2.41197,1.98585 -3.67468,4.56786 -3.64524,7.46271 0.0268,2.58657 1.08586,5.22528 3.0377,7.59418 l 39.9863,50.7927 c 3.26889,3.9694 4.35925,5.5086 5.8509,7.6463 l -19.64518,-12.2753 c -0.10192,-0.063 -0.20866,-0.1202 -0.3197,-0.1658 -6.32241,-2.6704 -11.65878,-0.7027 -14.09119,5.053 -0.0633,0.1497 -0.11103,0.3084 -0.14054,0.4672 -0.0483,0.2811 -1.18332,6.9595 7.59874,13.631 l 19.26659,14.5174 c 13.68088,12.0736 28.63805,18.8835 45.72611,20.8194 3.64974,0.4125 6.38822,2.4506 7.93652,3.9263 l -0.41036,0.338 c -0.9657,0.7979 -1.10398,2.2238 -0.31058,3.1918 l 21.3839,25.9902 c 0.383,0.4624 0.93395,0.7572 1.53242,0.8139 0.0724,0.01 0.14537,0.011 0.21993,0.011 0.52139,0 1.03372,-0.1813 1.44177,-0.5171 l 45.32487,-37.2931 c 0.46239,-0.383 0.75715,-0.934 0.8139,-1.5325 0.0569,-0.5985 -0.12928,-1.1946 -0.51013,-1.6594 z m -76.91442,2.2238 c -16.13368,-1.8249 -30.27475,-8.2697 -43.37079,-19.822 l -19.39806,-14.6216 c -5.70811,-4.3367 -5.91666,-8.1496 -5.88721,-9.0065 1.31479,-2.8632 3.14422,-3.2009 4.4205,-3.2009 1.01784,0 2.17397,0.2607 3.44118,0.7798 l 20.01016,12.5021 c 2.17171,1.2128 5.01667,0.3148 6.1456,-1.8498 0.77303,-1.4758 0.65518,-3.1873 -0.37602,-4.6654 -1.58456,-2.276 -2.73162,-3.9195 -6.20681,-8.1427 l -39.9863,-50.79501 c -1.29667,-1.57549 -2.02211,-3.27795 -2.03343,-4.79224 -0.0161,-1.50072 0.65512,-2.82007 1.99261,-3.91955 2.84501,-2.33945 6.19098,-1.89514 8.69141,1.1403 l 33.66154,39.39909 c 0.80928,0.94307 2.22385,1.06097 3.18048,0.26499 0.95213,-0.80022 1.08586,-2.21929 0.29449,-3.17823 -1.70471,-2.06969 -2.93111,-6.06402 -1.97903,-9.68656 0.68687,-2.61828 2.37801,-4.46353 5.02354,-5.48593 3.53183,-1.36468 17.55505,-6.27032 29.67627,-10.31453 4.29129,-1.42814 8.37627,-0.54177 11.17596,2.61152 0.53952,0.60753 1.49841,1.65713 2.72936,3.00593 5.34995,5.85772 16.48278,18.047 19.07616,22.41762 5.89628,9.9359 9.95857,19.7766 12.42048,30.0798 1.38056,5.7829 3.87192,9.9495 5.47461,12.1915 l -37.22513,30.6194 c -1.96997,-1.9836 -5.71492,-4.9397 -10.95152,-5.5314 z m 30.15008,33.3215 -18.50262,-22.4901 0.48062,-0.397 c 0.005,0 0.0107,0 0.0107,-0.01 l 40.6323,-33.4304 c 0.002,0 0.002,0 0.005,-0.01 l 0.69369,-0.5713 18.50257,22.4879 -41.82469,34.4142 z"
         id="path5"
         inkscape:connector-curvature="0"
         style="fill:#000000;fill-opacity:1" />
      <path
         d="m 418.35877,937.9997 c 6.76484,-5.56601 16.7991,-4.59141 22.36677,2.17515 1.62886,1.97951 2.6827,4.24236 3.20875,6.58776 l 3.87477,4.70942 c 0.29502,-4.73806 -1.10946,-9.59419 -4.357,-13.54147 -6.80362,-8.26888 -19.06698,-9.46266 -27.33758,-2.65738 -8.27059,6.80362 -9.46271,19.06704 -2.65738,27.33758 3.42794,4.16651 8.2419,6.53048 13.23293,6.98744 l -3.62688,-4.40253 c -2.60181,-0.93582 -4.9978,-2.54275 -6.87952,-4.82915 -5.56768,-6.76655 -4.59141,-16.80086 2.17514,-22.36682 z"
         id="path7-2"
         inkscape:connector-curvature="0"
         style="fill:none;fill-opacity:1;stroke:#000000;stroke-width:0.90899408;stroke-miterlimit:4;stroke-dasharray:none;stroke-opacity:1" />
      <path
         d="m 395.77733,971.36997 c -13.72171,-16.67551 -11.3165,-41.40763 5.35901,-55.12934 16.67545,-13.72165 41.40763,-11.31644 55.12928,5.35901 9.3239,11.33237 11.18277,26.37569 6.19555,39.16565 l 1.84976,2.24879 c 0.24943,-0.22904 0.5053,-0.45326 0.77077,-0.67099 0.41732,-0.34223 0.85235,-0.66874 1.30803,-0.97707 0.36262,-0.24461 0.74127,-0.44898 1.11531,-0.66419 4.74922,-13.93707 2.44828,-29.93472 -7.5738,-42.11719 -15.3856,-18.69987 -43.11234,-21.39522 -61.81221,-6.00963 -18.69981,15.38566 -21.39522,43.11235 -6.00962,61.81221 11.22584,13.64238 29.0144,18.72256 45.08006,14.51968 l -3.34822,-4.0646 c -13.7444,2.77469 -28.54966,-1.91102 -38.06392,-13.47233 z"
         id="path9-9"
         inkscape:connector-curvature="0"
         style="fill:none;fill-opacity:1;stroke:#000000;stroke-width:1.60923207;stroke-miterlimit:4;stroke-dasharray:none;stroke-dashoffset:0;stroke-opacity:1" />
    </g>
    <g
       id="g4988"
       transform="matrix(0.58263027,0,0,0.58263027,203.42735,555.4182)">
      <path
         inkscape:connector-curvature="0"
         id="path3453-1"
         d="m 442.37398,32.068429 115.29294,0"
         style="display:inline;fill:none;fill-rule:evenodd;stroke:#000000;stroke-width:4.58035088;stroke-linecap:butt;stroke-linejoin:miter;stroke-miterlimit:4;stroke-dasharray:none;stroke-opacity:1" />
      <path
         inkscape:connector-curvature="0"
         id="path3453-3-8"
         d="m 444.93604,29.826619 0,197.279041"
         style="display:inline;fill:none;fill-rule:evenodd;stroke:#000000;stroke-width:5.99153137;stroke-linecap:butt;stroke-linejoin:miter;stroke-miterlimit:4;stroke-dasharray:none;stroke-opacity:1" />
      <path
         inkscape:connector-curvature="0"
         id="path3453-3-7-6"
         d="m 587.23027,63.453725 0,163.331675"
         style="display:inline;fill:none;fill-rule:evenodd;stroke:#000000;stroke-width:5.45170784;stroke-linecap:butt;stroke-linejoin:miter;stroke-miterlimit:4;stroke-dasharray:none;stroke-opacity:1" />
      <path
         inkscape:connector-curvature="0"
         id="path3453-5-4"
         d="m 555.86701,32.116429 32.73686,33.367736"
         style="display:inline;fill:none;fill-rule:evenodd;stroke:#000000;stroke-width:5.079;stroke-linecap:butt;stroke-linejoin:miter;stroke-miterlimit:4;stroke-dasharray:none;stroke-opacity:1" />
      <path
         inkscape:connector-curvature="0"
         id="path3453-3-7-3-3"
         d="m 553.52341,31.107639 0,36.509456"
         style="display:inline;fill:none;fill-rule:evenodd;stroke:#000000;stroke-width:5;stroke-linecap:butt;stroke-linejoin:miter;stroke-miterlimit:4;stroke-dasharray:none;stroke-opacity:1" />
      <path
         inkscape:connector-curvature="0"
         id="path3453-3-7-3-5-3"
         d="m 587.45094,65.375275 -36.50944,0"
         style="display:inline;fill:none;fill-rule:evenodd;stroke:#000000;stroke-width:5;stroke-linecap:butt;stroke-linejoin:miter;stroke-miterlimit:4;stroke-dasharray:none;stroke-opacity:1" />
      <g
         transform="translate(-144.75669,-46.117175)"
         id="g4859">
        <path
           style="display:inline;fill:none;fill-rule:evenodd;stroke:#000000;stroke-width:5.18881845;stroke-linecap:butt;stroke-linejoin:miter;stroke-miterlimit:4;stroke-dasharray:none;stroke-opacity:1"
           d="m 586.81042,271.69999 147.95927,0"
           id="path3453-6-9"
           inkscape:connector-curvature="0" />
        <path
           style="display:inline;fill:none;fill-rule:evenodd;stroke:#000000;stroke-width:4.19999981;stroke-linecap:butt;stroke-linejoin:miter;stroke-miterlimit:4;stroke-dasharray:none;stroke-opacity:1"
           d="m 605.32927,165.95444 110,0"
           id="path3453-62-3"
           inkscape:connector-curvature="0" />
        <path
           style="display:inline;fill:none;fill-rule:evenodd;stroke:#000000;stroke-width:4.19999981;stroke-linecap:butt;stroke-linejoin:miter;stroke-miterlimit:4;stroke-dasharray:none;stroke-opacity:1"
           d="m 605.32927,188.90206 110,0"
           id="path3453-62-9-8"
           inkscape:connector-curvature="0" />
        <path
           style="display:inline;fill:none;fill-rule:evenodd;stroke:#000000;stroke-width:4.19999981;stroke-linecap:butt;stroke-linejoin:miter;stroke-miterlimit:4;stroke-dasharray:none;stroke-opacity:1"
           d="m 605.32927,211.84971 110,0"
           id="path3453-62-1-6"
           inkscape:connector-curvature="0" />
        <path
           style="display:inline;fill:none;fill-rule:evenodd;stroke:#000000;stroke-width:4.19999981;stroke-linecap:butt;stroke-linejoin:miter;stroke-miterlimit:4;stroke-dasharray:none;stroke-opacity:1"
           d="m 605.32927,234.79735 110,0"
           id="path3453-62-1-6-9"
           inkscape:connector-curvature="0" />
        <path
           style="display:inline;fill:none;fill-rule:evenodd;stroke:#000000;stroke-width:4.19999981;stroke-linecap:butt;stroke-linejoin:miter;stroke-miterlimit:4;stroke-dasharray:none;stroke-opacity:1"
           d="m 605.32927,257.74494 110,0"
           id="path3453-62-1-6-7"
           inkscape:connector-curvature="0" />
        <path
           style="display:inline;fill:none;fill-rule:evenodd;stroke:#000000;stroke-width:4.19999981;stroke-linecap:butt;stroke-linejoin:miter;stroke-miterlimit:4;stroke-dasharray:none;stroke-opacity:1"
           d="m 605.32927,143.0069 110,0"
           id="path3453-62-1-6-76"
           inkscape:connector-curvature="0" />
        <path
           style="display:inline;fill:none;fill-rule:evenodd;stroke:#000000;stroke-width:4.19999981;stroke-linecap:butt;stroke-linejoin:miter;stroke-miterlimit:4;stroke-dasharray:none;stroke-opacity:1"
           d="m 605.32927,120.05927 110,0"
           id="path3453-62-1-6-4"
           inkscape:connector-curvature="0" />
        <path
           style="display:inline;fill:none;fill-rule:evenodd;stroke:#000000;stroke-width:4.19709587;stroke-linecap:butt;stroke-linejoin:miter;stroke-miterlimit:4;stroke-dasharray:none;stroke-opacity:1"
           d="m 716.00269,118.03653 0,141.844"
           id="path3453-62-1-6-4-3"
           inkscape:connector-curvature="0" />
        <path
           style="display:inline;fill:none;fill-rule:evenodd;stroke:#000000;stroke-width:4.19709587;stroke-linecap:butt;stroke-linejoin:miter;stroke-miterlimit:4;stroke-dasharray:none;stroke-opacity:1"
           d="m 679.82772,118.03653 0,141.844"
           id="path3453-62-1-6-4-3-0"
           inkscape:connector-curvature="0" />
        <path
           style="display:inline;fill:none;fill-rule:evenodd;stroke:#000000;stroke-width:4.19709587;stroke-linecap:butt;stroke-linejoin:miter;stroke-miterlimit:4;stroke-dasharray:none;stroke-opacity:1"
           d="m 643.65286,118.03653 0,141.844"
           id="path3453-62-1-6-4-3-3"
           inkscape:connector-curvature="0" />
        <path
           style="display:inline;fill:none;fill-rule:evenodd;stroke:#000000;stroke-width:4.19709587;stroke-linecap:butt;stroke-linejoin:miter;stroke-miterlimit:4;stroke-dasharray:none;stroke-opacity:1"
           d="m 607.47797,118.03653 0,141.844"
           id="path3453-62-1-6-4-3-09"
           inkscape:connector-curvature="0" />
      </g>
      <text
         sodipodi:linespacing="125%"
         id="text4435-4"
         y="89.431488"
         x="467.68234"
         style="font-style:normal;font-weight:normal;font-size:13.6443491px;line-height:125%;font-family:Sans;letter-spacing:0px;word-spacing:0px;display:inline;fill:#000000;fill-opacity:1;stroke:none;stroke-width:1px;stroke-linecap:butt;stroke-linejoin:miter;stroke-opacity:1"
         xml:space="preserve"><tspan
           style="font-style:normal;font-variant:normal;font-weight:normal;font-stretch:normal;font-family:Montserrat;-inkscape-font-specification:Montserrat"
           y="89.431488"
           x="467.68234"
           id="tspan4437-0"
           sodipodi:role="line">Age</tspan></text>
      <path
         style="display:inline;fill:#000000;fill-opacity:1;stroke:#000000;stroke-width:0.07019848;stroke-miterlimit:4;stroke-dasharray:none;stroke-opacity:1;shape-rendering:crispEdges"
         id="path3-5"
         d="m 516.06656,92.473567 c 1.53217,0.19366 3.06953,-0.213458 4.28546,-1.156518 2.39263,-1.855673 2.91962,-5.185398 1.32532,-7.686511 l 2.74563,-2.129458 -0.15403,1.218775 c -0.0352,0.278572 0.17772,0.553137 0.45631,0.588354 0.27858,0.03521 0.55313,-0.177738 0.58836,-0.456318 l 0.31689,-2.507197 c 0.009,-0.06964 0.0176,-0.139285 -0.0129,-0.178519 0,0 0,0 0,0 -0.0521,-0.14808 -0.1085,-0.261353 -0.24336,-0.313781 0,0 0,0 0,0 -0.0653,-0.04362 -0.13488,-0.05243 -0.1697,-0.05683 l -2.47238,-0.312492 c -0.27858,-0.03521 -0.55313,0.177731 -0.58836,0.456311 -0.0352,0.27858 0.17775,0.553137 0.45633,0.588347 l 1.21877,0.154049 -2.74565,2.129467 c -0.93464,-1.0026 -2.16584,-1.618134 -3.5239,-1.789788 -1.53218,-0.193652 -3.06952,0.213466 -4.28546,1.156518 -2.5103,1.946924 -2.97243,5.603265 -1.0255,8.113573 0.90821,1.211524 2.29593,1.988358 3.82811,2.182018 z m -2.19858,-9.476298 c 0.98058,-0.760526 2.23056,-1.133207 3.48415,-0.974764 1.2536,0.158444 2.37594,0.795597 3.13205,1.811014 1.61232,2.078844 1.23821,5.038731 -0.84064,6.651041 -0.98059,0.760518 -2.23056,1.133207 -3.48416,0.974756 -1.2536,-0.158442 -2.37593,-0.795596 -3.13206,-1.811005 -1.57749,-2.074444 -1.19898,-5.069154 0.84066,-6.651042 z"
         inkscape:connector-curvature="0" />
      <text
         sodipodi:linespacing="125%"
         id="text4435-4-6"
         y="90.775459"
         x="547.81677"
         style="font-style:normal;font-weight:normal;font-size:13.6443491px;line-height:125%;font-family:Sans;letter-spacing:0px;word-spacing:0px;display:inline;fill:#000000;fill-opacity:1;stroke:none;stroke-width:1px;stroke-linecap:butt;stroke-linejoin:miter;stroke-opacity:1"
         xml:space="preserve"><tspan
           style="font-style:normal;font-variant:normal;font-weight:normal;font-stretch:normal;font-family:Montserrat;-inkscape-font-specification:Montserrat"
           y="90.775459"
           x="547.81677"
           id="tspan4437-0-9"
           sodipodi:role="line">X</tspan></text>
    </g>
    <g
       id="g4767"
       transform="matrix(1.0770925,0,0,1.0770925,-28.134066,-45.117021)">
      <g
         transform="translate(-240.90514,44.247883)"
         id="g4638">
        <path
           style="fill:none;fill-rule:evenodd;stroke:#000000;stroke-width:3;stroke-linecap:butt;stroke-linejoin:miter;stroke-miterlimit:4;stroke-dasharray:none;stroke-opacity:1"
           d="m 451.68692,563.32818 0,65.58846 90.90198,0 0.45447,-65.96756 z"
           id="path4537"
           inkscape:connector-curvature="0" />
        <path
           style="display:inline;opacity:1;fill:#ffffff;fill-opacity:1;stroke:#000000;stroke-width:3;stroke-linecap:butt;stroke-linejoin:round;stroke-miterlimit:4;stroke-dasharray:none;stroke-dashoffset:0;stroke-opacity:1"
           id="path4504-6"
           sodipodi:type="arc"
           sodipodi:cx="497.29773"
           sodipodi:cy="625.54108"
           sodipodi:rx="45.501759"
           sodipodi:ry="20.223003"
           sodipodi:start="0"
           sodipodi:end="3.1613282"
           sodipodi:open="true"
           d="m 542.79949,625.54108 a 45.501759,20.223003 0 0 1 -23.0106,17.57977 45.501759,20.223003 0 0 1 -45.75852,-0.20069 45.501759,20.223003 0 0 1 -22.22554,-17.77817" />
        <path
           style="display:inline;opacity:1;fill:#ffffff;fill-opacity:1;stroke:#000000;stroke-width:3;stroke-linecap:butt;stroke-linejoin:round;stroke-miterlimit:4;stroke-dasharray:none;stroke-dashoffset:0;stroke-opacity:1"
           id="path4504-7"
           sodipodi:type="arc"
           sodipodi:cx="497.29773"
           sodipodi:cy="605.08545"
           sodipodi:rx="45.501759"
           sodipodi:ry="20.223003"
           sodipodi:start="0"
           sodipodi:end="3.158383"
           sodipodi:open="true"
           d="m 542.79949,605.08545 a 45.501759,20.223003 0 0 1 -22.97178,17.56995 45.501759,20.223003 0 0 1 -45.72052,-0.17059 45.501759,20.223003 0 0 1 -22.30481,-17.7389" />
        <path
           style="display:inline;opacity:1;fill:#ffffff;fill-opacity:1;stroke:#000000;stroke-width:3;stroke-linecap:butt;stroke-linejoin:round;stroke-miterlimit:4;stroke-dasharray:none;stroke-dashoffset:0;stroke-opacity:1"
           id="path4504-3"
           sodipodi:type="arc"
           sodipodi:cx="497.29773"
           sodipodi:cy="583.65167"
           sodipodi:rx="45.501759"
           sodipodi:ry="20.223003"
           sodipodi:start="0"
           sodipodi:end="3.1415927"
           sodipodi:open="true"
           d="m 542.79949,583.65167 a 45.501759,20.223003 0 0 1 -22.75088,17.51364 45.501759,20.223003 0 0 1 -45.50176,0 45.501759,20.223003 0 0 1 -22.75088,-17.51364" />
        <ellipse
           style="opacity:1;fill:#ffffff;fill-opacity:1;stroke:#000000;stroke-width:3;stroke-linecap:butt;stroke-linejoin:round;stroke-miterlimit:4;stroke-dasharray:none;stroke-dashoffset:0;stroke-opacity:1"
           id="path4504"
           cx="497.29773"
           cy="562.70703"
           rx="45.501759"
           ry="20.223003" />
      </g>
      <text
         sodipodi:linespacing="125%"
         id="text4435-1"
         y="639.99402"
         x="246.03679"
         style="font-style:normal;font-weight:normal;font-size:11.09072304px;line-height:125%;font-family:Sans;letter-spacing:0px;word-spacing:0px;display:inline;fill:#000000;fill-opacity:1;stroke:none;stroke-width:1px;stroke-linecap:butt;stroke-linejoin:miter;stroke-opacity:1"
         xml:space="preserve"><tspan
           style="font-style:normal;font-variant:normal;font-weight:normal;font-stretch:normal;font-family:Montserrat;-inkscape-font-specification:Montserrat"
           y="639.99402"
           x="246.03679"
           id="tspan4437-27"
           sodipodi:role="line">SQL</tspan></text>
    </g>
    <g
       id="g4575"
       transform="matrix(0.84369132,0,0,0.84369132,261.68735,-62.060631)">
      <rect
         ry="5.401854"
         y="596.12537"
         x="153.37862"
         height="123.42954"
         width="123.42955"
         id="rect4621-7-6"
         style="opacity:1;fill:#ffffff;fill-opacity:1;stroke:none;stroke-width:1.39999998;stroke-linecap:butt;stroke-linejoin:round;stroke-miterlimit:4;stroke-dasharray:none;stroke-dashoffset:0;stroke-opacity:1" />
      <ellipse
         ry="2.384598"
         rx="2.3511691"
         cx="198.44408"
         cy="614.78906"
         id="circle5-5-1"
         style="fill:#000000;fill-opacity:1;stroke-width:1.39999998;stroke-miterlimit:4;stroke-dasharray:none" />
      <ellipse
         ry="2.384598"
         rx="2.3511691"
         cx="186.218"
         cy="614.78906"
         id="circle7-9-5"
         style="fill:#000000;fill-opacity:1;stroke-width:1.39999998;stroke-miterlimit:4;stroke-dasharray:none" />
      <ellipse
         ry="2.384598"
         rx="2.3511691"
         cx="173.99191"
         cy="614.78906"
         id="circle9-2-5"
         style="fill:#000000;fill-opacity:1;stroke-width:1.39999998;stroke-miterlimit:4;stroke-dasharray:none" />
      <path
         d="m 254.34666,613.59677 -40.61998,0 c -0.6501,0 -1.17558,0.53415 -1.17558,1.1923 0,0.65815 0.52548,1.1923 1.17558,1.1923 l 40.61998,0 c 0.65009,0 1.17558,-0.53415 1.17558,-1.1923 0,-0.65815 -0.52549,-1.1923 -1.17558,-1.1923 z"
         id="path11-2-47"
         inkscape:connector-curvature="0"
         style="fill:#000000;fill-opacity:1;stroke-width:1.39999998;stroke-miterlimit:4;stroke-dasharray:none" />
      <ellipse
         ry="2.384598"
         rx="2.3511691"
         cx="198.44408"
         cy="650.55804"
         id="circle13-8-6"
         style="fill:#000000;fill-opacity:1;stroke-width:1.39999998;stroke-miterlimit:4;stroke-dasharray:none" />
      <ellipse
         ry="2.384598"
         rx="2.3511691"
         cx="186.218"
         cy="650.55804"
         id="circle15-9-5"
         style="fill:#000000;fill-opacity:1;stroke-width:1.39999998;stroke-miterlimit:4;stroke-dasharray:none" />
      <ellipse
         ry="2.384598"
         rx="2.3511691"
         cx="173.99191"
         cy="650.55804"
         id="circle17-7-6"
         style="fill:#000000;fill-opacity:1;stroke-width:1.39999998;stroke-miterlimit:4;stroke-dasharray:none" />
      <path
         d="m 255.52224,650.55804 c 0,-0.65815 -0.52549,-1.1923 -1.17558,-1.1923 l -16.46877,0 c 1.28844,0.69869 2.52281,1.49872 3.70074,2.3846 l 12.76803,0 c 0.65009,0 1.17558,-0.53415 1.17558,-1.1923 z"
         id="path19-3-9"
         inkscape:connector-curvature="0"
         style="fill:#000000;fill-opacity:1;stroke-width:1.39999998;stroke-miterlimit:4;stroke-dasharray:none" />
      <ellipse
         ry="2.384598"
         rx="2.3511691"
         cx="173.99191"
         cy="687.51935"
         id="circle21-6-3"
         style="fill:#000000;fill-opacity:1;stroke-width:1.39999998;stroke-miterlimit:4;stroke-dasharray:none" />
      <path
         d="m 267.27809,708.98069 -51.72573,0 0,-3.57689 -2.35116,0 0,3.57689 -51.72573,0 c -0.6501,0 -1.17558,0.53415 -1.17558,1.1923 0,0.65815 0.52548,1.1923 1.17558,1.1923 l 105.80262,0 c 0.6501,0 1.17558,-0.53415 1.17558,-1.1923 0,-0.65815 -0.52548,-1.1923 -1.17558,-1.1923 z"
         id="path23-1-7"
         inkscape:connector-curvature="0"
         style="fill:#000000;fill-opacity:1;stroke-width:1.39999998;stroke-miterlimit:4;stroke-dasharray:none" />
      <path
         d="m 215.55236,627.90436 45.8478,0 c 3.89001,0 7.05351,-3.20847 7.05351,-7.15379 l 0,-11.92299 c 0,-3.94532 -3.1635,-7.1538 -7.05351,-7.1538 l -94.04676,0 c -3.89001,0 -7.05351,3.20848 -7.05351,7.1538 l 0,11.92299 c 0,3.94532 3.1635,7.15379 7.05351,7.15379 l 45.8478,0 0,9.24032 c 0,0.10611 0.0341,0.20031 0.06,0.29807 l -45.90775,0 c -3.89001,0 -7.05351,3.20848 -7.05351,7.1538 l 0,11.92299 c 0,3.94532 3.1635,7.15379 7.05351,7.15379 l 29.01107,0 c 0.36091,-0.81672 0.75943,-1.61079 1.18499,-2.3846 l -30.19606,0 c -2.59334,0 -4.70234,-2.13898 -4.70234,-4.76919 l 0,-11.92299 c 0,-2.63021 2.109,-4.7692 4.70234,-4.7692 l 94.04676,0 c 2.59334,0 4.70234,2.13899 4.70234,4.7692 l 0,11.92299 c 0,2.19979 -1.48359,4.03831 -3.48443,4.58677 0.75825,0.51984 1.47771,1.08738 2.16895,1.68591 2.18306,-1.21733 3.66665,-3.57212 3.66665,-6.27268 l 0,-11.92299 c 0,-3.94532 -3.1635,-7.1538 -7.05351,-7.1538 l -45.90657,0 c 0.0259,-0.0978 0.0588,-0.19196 0.0588,-0.29807 l 0,-9.24032 z m -48.19896,-2.3846 c -2.59334,0 -4.70234,-2.13898 -4.70234,-4.76919 l 0,-11.92299 c 0,-2.63021 2.109,-4.7692 4.70234,-4.7692 l 94.04676,0 c 2.59334,0 4.70234,2.13899 4.70234,4.7692 l 0,11.92299 c 0,2.63021 -2.109,4.76919 -4.70234,4.76919 l -94.04676,0 z"
         id="path25-2-4"
         inkscape:connector-curvature="0"
         style="fill:#000000;fill-opacity:1;stroke-width:1.39999998;stroke-miterlimit:4;stroke-dasharray:none" />
      <path
         d="m 167.3534,700.6346 17.85948,0 c -0.83937,-0.72969 -1.62349,-1.52257 -2.33236,-2.3846 l -15.52712,0 c -2.59334,0 -4.70234,-2.13898 -4.70234,-4.76919 l 0,-11.92299 c 0,-2.63021 2.109,-4.7692 4.70234,-4.7692 l 13.05957,0 c 0.42321,-0.83461 0.9099,-1.62749 1.44714,-2.3846 l -14.50671,0 c -3.89001,0 -7.05351,3.20848 -7.05351,7.1538 l 0,11.92299 c 0,3.94531 3.1635,7.15379 7.05351,7.15379 z"
         id="path27-9-5"
         inkscape:connector-curvature="0"
         style="fill:#000000;fill-opacity:1;stroke-width:1.39999998;stroke-miterlimit:4;stroke-dasharray:none" />
      <path
         d="m 248.35353,661.51646 c -1.11446,0 -2.27829,0.124 -3.61258,0.38988 -4.7329,-7.12279 -12.52467,-11.3483 -21.00769,-11.3483 -12.19669,0 -22.45602,8.58098 -24.826,20.57312 -0.32446,-0.0465 -0.66655,-0.0811 -1.02041,-0.0811 -8.32313,0 -14.84293,6.36687 -14.84293,14.49477 0,8.32106 6.65851,15.08974 14.84293,15.08974 l 50.46668,0 c 11.45842,0 20.10014,-8.32105 20.10014,-19.35697 0,-11.08123 -8.82864,-19.76117 -20.10014,-19.76117 z m 0,36.73354 -50.46668,0 c -6.88775,0 -12.49176,-5.69919 -12.49176,-12.70514 0,-6.79014 5.48646,-12.11018 12.49176,-12.11018 0.3903,0 0.80646,0.0715 1.24612,0.14785 0.1881,0.0322 0.37502,0.0644 0.56193,0.0918 0.63717,0.093 1.23202,-0.35173 1.32959,-0.99915 1.73399,-11.43415 11.28444,-19.73255 22.70877,-19.73255 7.94342,0 15.22147,4.0872 19.46768,10.93338 0.26568,0.42685 0.76648,0.64027 1.25317,0.52819 1.5071,-0.34338 2.74617,-0.50315 3.89942,-0.50315 9.9525,0 17.74897,7.63191 17.74897,17.37537 0,9.6767 -7.63072,16.97357 -17.74897,16.97357 z"
         id="path29-3-25"
         inkscape:connector-curvature="0"
         style="fill:#000000;fill-opacity:1;stroke-width:1.39999998;stroke-miterlimit:4;stroke-dasharray:none" />
    </g>
  </g>
</svg>
